<?xml version="1.0" encoding="UTF-8" standalone="no"?>
<!DOCTYPE svg PUBLIC "-//W3C//DTD SVG 1.1//EN"
 "http://www.w3.org/Graphics/SVG/1.1/DTD/svg11.dtd">
<!-- Generated by graphviz version 2.40.1 (20161225.0304)
 -->
<!-- Title: diagram Pages: 1 -->
<svg width="902pt" height="260pt"
 viewBox="0.00 0.00 902.29 260.00" xmlns="http://www.w3.org/2000/svg" xmlns:xlink="http://www.w3.org/1999/xlink">
<g id="graph0" class="graph" transform="scale(1 1) rotate(0) translate(4 256)">
<title>diagram</title>
<polygon fill="#ffffff" stroke="transparent" points="-4,4 -4,-256 898.2907,-256 898.2907,4 -4,4"/>
<!-- Mammal -->
<g id="node1" class="node">
<title>Mammal</title>
<ellipse fill="#ffd700" stroke="#000000" cx="502.5963" cy="-162" rx="44.393" ry="18"/>
<text text-anchor="middle" x="502.5963" y="-158.3" font-family="Times,serif" font-size="14.00" fill="#000000">Mammal</text>
</g>
<!-- Animal -->
<g id="node2" class="node">
<title>Animal</title>
<ellipse fill="#ffd700" stroke="#000000" cx="569.5963" cy="-234" rx="37.8943" ry="18"/>
<text text-anchor="middle" x="569.5963" y="-230.3" font-family="Times,serif" font-size="14.00" fill="#000000">Animal</text>
</g>
<!-- Mammal&#45;&gt;Animal -->
<g id="edge1" class="edge">
<title>Mammal&#45;&gt;Animal</title>
<path fill="none" stroke="#000000" d="M518.4744,-179.063C526.9853,-188.209 537.6175,-199.6348 546.9782,-209.6939"/>
<polygon fill="#000000" stroke="#000000" points="544.4576,-212.1231 553.8322,-217.0595 549.5821,-207.3545 544.4576,-212.1231"/>
</g>
<!-- Wolf -->
<g id="node3" class="node">
<title>Wolf</title>
<ellipse fill="#ff8c00" stroke="#000000" cx="545.5963" cy="-90" rx="29.4969" ry="18"/>
<text text-anchor="middle" x="545.5963" y="-86.3" font-family="Times,serif" font-size="14.00" fill="#000000">Wolf</text>
</g>
<!-- Wolf&#45;&gt;Mammal -->
<g id="edge2" class="edge">
<title>Wolf&#45;&gt;Mammal</title>
<path fill="none" stroke="#000000" d="M535.4059,-107.063C530.3244,-115.5716 524.0645,-126.0532 518.3796,-135.5721"/>
<polygon fill="#000000" stroke="#000000" points="515.2852,-133.9275 513.1626,-144.3076 521.295,-137.5167 515.2852,-133.9275"/>
</g>
<!-- Parrot -->
<g id="node4" class="node">
<title>Parrot</title>
<ellipse fill="#ff8c00" stroke="#000000" cx="373.5963" cy="-90" rx="32.4942" ry="18"/>
<text text-anchor="middle" x="373.5963" y="-86.3" font-family="Times,serif" font-size="14.00" fill="#000000">Parrot</text>
</g>
<!-- Parrot&#45;&gt;Mammal -->
<g id="edge3" class="edge">
<title>Parrot&#45;&gt;Mammal</title>
<path fill="none" stroke="#000000" d="M396.6589,-102.8722C416.277,-113.8218 444.7641,-129.7216 467.2579,-142.2762"/>
<polygon fill="#000000" stroke="#000000" points="465.7373,-145.4357 476.1751,-147.2533 469.1489,-139.3234 465.7373,-145.4357"/>
</g>
<!-- TalkingAnimal -->
<g id="node5" class="node">
<title>TalkingAnimal</title>
<ellipse fill="#5f9ea0" stroke="#000000" cx="375.5963" cy="-162" rx="64.9885" ry="18"/>
<text text-anchor="middle" x="375.5963" y="-158.3" font-family="Times,serif" font-size="14.00" fill="#000000">TalkingAnimal</text>
</g>
<!-- Parrot&#45;&gt;TalkingAnimal -->
<g id="edge4" class="edge">
<title>Parrot&#45;&gt;TalkingAnimal</title>
<path fill="none" stroke="#000000" d="M374.101,-108.1686C374.3149,-115.869 374.5692,-125.0257 374.807,-133.5834"/>
<polygon fill="#000000" stroke="#000000" points="371.3084,-133.6878 375.0848,-143.5867 378.3057,-133.4934 371.3084,-133.6878"/>
</g>
<!-- Flyer -->
<g id="node6" class="node">
<title>Flyer</title>
<ellipse fill="#5f9ea0" stroke="#000000" cx="145.5963" cy="-162" rx="29.4969" ry="18"/>
<text text-anchor="middle" x="145.5963" y="-158.3" font-family="Times,serif" font-size="14.00" fill="#000000">Flyer</text>
</g>
<!-- Parrot&#45;&gt;Flyer -->
<g id="edge5" class="edge">
<title>Parrot&#45;&gt;Flyer</title>
<path fill="none" stroke="#000000" d="M348.0288,-101.5463C342.6491,-103.8092 336.974,-106.0751 331.5963,-108 280.8109,-126.1777 220.6367,-142.778 182.7823,-152.64"/>
<polygon fill="#000000" stroke="#000000" points="181.5302,-149.3485 172.7236,-155.2386 183.2812,-156.126 181.5302,-149.3485"/>
</g>
<!-- TalkingAnimal&#45;&gt;Animal -->
<g id="edge8" class="edge">
<title>TalkingAnimal&#45;&gt;Animal</title>
<path fill="none" stroke="#000000" d="M414.8551,-176.5703C448.4116,-189.0242 496.4634,-206.8579 530.0907,-219.3381"/>
<polygon fill="#000000" stroke="#000000" points="529.0066,-222.669 539.5996,-222.8672 531.4422,-216.1064 529.0066,-222.669"/>
</g>
<!-- Dog -->
<g id="node7" class="node">
<title>Dog</title>
<ellipse fill="#ff8c00" stroke="#000000" cx="545.5963" cy="-18" rx="27" ry="18"/>
<text text-anchor="middle" x="545.5963" y="-14.3" font-family="Times,serif" font-size="14.00" fill="#000000">Dog</text>
</g>
<!-- Dog&#45;&gt;Wolf -->
<g id="edge6" class="edge">
<title>Dog&#45;&gt;Wolf</title>
<path fill="none" stroke="#000000" d="M545.5963,-36.1686C545.5963,-43.869 545.5963,-53.0257 545.5963,-61.5834"/>
<polygon fill="#000000" stroke="#000000" points="542.0964,-61.5867 545.5963,-71.5867 549.0964,-61.5868 542.0964,-61.5867"/>
</g>
<!-- Insect -->
<g id="node8" class="node">
<title>Insect</title>
<ellipse fill="#ffd700" stroke="#000000" cx="260.5963" cy="-162" rx="31.6951" ry="18"/>
<text text-anchor="middle" x="260.5963" y="-158.3" font-family="Times,serif" font-size="14.00" fill="#000000">Insect</text>
</g>
<!-- Insect&#45;&gt;Animal -->
<g id="edge7" class="edge">
<title>Insect&#45;&gt;Animal</title>
<path fill="none" stroke="#000000" d="M284.9825,-173.7276C290.3716,-176.0299 296.1114,-178.2656 301.5963,-180 377.4844,-203.9964 468.9474,-219.726 523.018,-227.7225"/>
<polygon fill="#000000" stroke="#000000" points="522.5928,-231.1974 532.9923,-229.1724 523.5998,-224.2702 522.5928,-231.1974"/>
</g>
<!-- SwimmerAnimal -->
<g id="node9" class="node">
<title>SwimmerAnimal</title>
<ellipse fill="#5f9ea0" stroke="#000000" cx="637.5963" cy="-162" rx="72.5877" ry="18"/>
<text text-anchor="middle" x="637.5963" y="-158.3" font-family="Times,serif" font-size="14.00" fill="#000000">SwimmerAnimal</text>
</g>
<!-- SwimmerAnimal&#45;&gt;Animal -->
<g id="edge9" class="edge">
<title>SwimmerAnimal&#45;&gt;Animal</title>
<path fill="none" stroke="#000000" d="M620.7873,-179.7978C612.2221,-188.8668 601.6816,-200.0274 592.3958,-209.8593"/>
<polygon fill="#000000" stroke="#000000" points="589.6013,-207.7208 585.2796,-217.3942 594.6904,-212.5272 589.6013,-207.7208"/>
</g>
<!-- JumperAnimal -->
<g id="node10" class="node">
<title>JumperAnimal</title>
<ellipse fill="#5f9ea0" stroke="#000000" cx="830.5963" cy="-162" rx="63.8893" ry="18"/>
<text text-anchor="middle" x="830.5963" y="-158.3" font-family="Times,serif" font-size="14.00" fill="#000000">JumperAnimal</text>
</g>
<!-- JumperAnimal&#45;&gt;Animal -->
<g id="edge10" class="edge">
<title>JumperAnimal&#45;&gt;Animal</title>
<path fill="none" stroke="#000000" d="M784.8349,-174.6238C736.1079,-188.0658 659.612,-209.1681 612.1483,-222.2615"/>
<polygon fill="#000000" stroke="#000000" points="611.1903,-218.895 602.4812,-224.9283 613.0519,-225.6429 611.1903,-218.895"/>
</g>
<!-- Frog -->
<g id="node11" class="node">
<title>Frog</title>
<ellipse fill="#ff8c00" stroke="#000000" cx="740.5963" cy="-18" rx="27.0966" ry="18"/>
<text text-anchor="middle" x="740.5963" y="-14.3" font-family="Times,serif" font-size="14.00" fill="#000000">Frog</text>
</g>
<!-- Amphibian -->
<g id="node12" class="node">
<title>Amphibian</title>
<ellipse fill="#ffd700" stroke="#000000" cx="740.5963" cy="-90" rx="50.8918" ry="18"/>
<text text-anchor="middle" x="740.5963" y="-86.3" font-family="Times,serif" font-size="14.00" fill="#000000">Amphibian</text>
</g>
<!-- Frog&#45;&gt;Amphibian -->
<g id="edge11" class="edge">
<title>Frog&#45;&gt;Amphibian</title>
<path fill="none" stroke="#000000" d="M740.5963,-36.1686C740.5963,-43.869 740.5963,-53.0257 740.5963,-61.5834"/>
<polygon fill="#000000" stroke="#000000" points="737.0964,-61.5867 740.5963,-71.5867 744.0964,-61.5868 737.0964,-61.5867"/>
</g>
<!-- Amphibian&#45;&gt;Animal -->
<g id="edge15" class="edge">
<title>Amphibian&#45;&gt;Animal</title>
<path fill="none" stroke="#000000" d="M741.2001,-108.1724C740.8762,-128.1681 737.3029,-160.1039 719.5963,-180 693.4994,-209.324 650.2786,-222.7305 616.9178,-228.856"/>
<polygon fill="#000000" stroke="#000000" points="616.1949,-225.4283 606.9109,-230.5329 617.3518,-232.332 616.1949,-225.4283"/>
</g>
<!-- Amphibian&#45;&gt;SwimmerAnimal -->
<g id="edge16" class="edge">
<title>Amphibian&#45;&gt;SwimmerAnimal</title>
<path fill="none" stroke="#000000" d="M717.4811,-106.1582C703.5687,-115.8834 685.6372,-128.418 670.2891,-139.1468"/>
<polygon fill="#000000" stroke="#000000" points="668.261,-136.2941 662.0701,-144.8921 672.2715,-142.0314 668.261,-136.2941"/>
</g>
<!-- Human -->
<g id="node13" class="node">
<title>Human</title>
<ellipse fill="#ff8c00" stroke="#000000" cx="461.5963" cy="-90" rx="37.0935" ry="18"/>
<text text-anchor="middle" x="461.5963" y="-86.3" font-family="Times,serif" font-size="14.00" fill="#000000">Human</text>
</g>
<!-- Human&#45;&gt;Mammal -->
<g id="edge12" class="edge">
<title>Human&#45;&gt;Mammal</title>
<path fill="none" stroke="#000000" d="M471.5213,-107.4292C476.2848,-115.7945 482.0975,-126.002 487.4013,-135.3161"/>
<polygon fill="#000000" stroke="#000000" points="484.488,-137.2732 492.4779,-144.2311 490.5709,-133.8093 484.488,-137.2732"/>
</g>
<!-- Human&#45;&gt;TalkingAnimal -->
<g id="edge13" class="edge">
<title>Human&#45;&gt;TalkingAnimal</title>
<path fill="none" stroke="#000000" d="M442.9356,-105.6229C431.4807,-115.213 416.5899,-127.6798 403.7247,-138.4507"/>
<polygon fill="#000000" stroke="#000000" points="401.4456,-135.794 396.0248,-144.8971 405.9392,-141.1613 401.4456,-135.794"/>
</g>
<!-- Human&#45;&gt;SwimmerAnimal -->
<g id="edge14" class="edge">
<title>Human&#45;&gt;SwimmerAnimal</title>
<path fill="none" stroke="#000000" d="M490.2655,-101.7283C517.2773,-112.7786 558.2493,-129.5398 590.1349,-142.584"/>
<polygon fill="#000000" stroke="#000000" points="589.1325,-145.9554 599.7132,-146.5024 591.783,-139.4766 589.1325,-145.9554"/>
</g>
<!-- Mosquito -->
<g id="node14" class="node">
<title>Mosquito</title>
<ellipse fill="#ff8c00" stroke="#000000" cx="145.5963" cy="-90" rx="44.6926" ry="18"/>
<text text-anchor="middle" x="145.5963" y="-86.3" font-family="Times,serif" font-size="14.00" fill="#000000">Mosquito</text>
</g>
<!-- Mosquito&#45;&gt;Flyer -->
<g id="edge18" class="edge">
<title>Mosquito&#45;&gt;Flyer</title>
<path fill="none" stroke="#000000" d="M145.5963,-108.1686C145.5963,-115.869 145.5963,-125.0257 145.5963,-133.5834"/>
<polygon fill="#000000" stroke="#000000" points="142.0964,-133.5867 145.5963,-143.5867 149.0964,-133.5868 142.0964,-133.5867"/>
</g>
<!-- Mosquito&#45;&gt;Insect -->
<g id="edge17" class="edge">
<title>Mosquito&#45;&gt;Insect</title>
<path fill="none" stroke="#000000" d="M169.9849,-105.2693C187.6294,-116.3164 211.5842,-131.3141 230.432,-143.1145"/>
<polygon fill="#000000" stroke="#000000" points="228.6241,-146.112 238.9572,-148.4521 232.3387,-140.1789 228.6241,-146.112"/>
</g>
<!-- Dolphin -->
<g id="node15" class="node">
<title>Dolphin</title>
<ellipse fill="#ff8c00" stroke="#000000" cx="632.5963" cy="-90" rx="39.7935" ry="18"/>
<text text-anchor="middle" x="632.5963" y="-86.3" font-family="Times,serif" font-size="14.00" fill="#000000">Dolphin</text>
</g>
<!-- Dolphin&#45;&gt;Mammal -->
<g id="edge19" class="edge">
<title>Dolphin&#45;&gt;Mammal</title>
<path fill="none" stroke="#000000" d="M607.2224,-104.0532C587.438,-115.0108 559.7333,-130.3549 537.8028,-142.501"/>
<polygon fill="#000000" stroke="#000000" points="535.8496,-139.5818 528.7974,-147.4886 539.2411,-145.7053 535.8496,-139.5818"/>
</g>
<!-- Dolphin&#45;&gt;SwimmerAnimal -->
<g id="edge20" class="edge">
<title>Dolphin&#45;&gt;SwimmerAnimal</title>
<path fill="none" stroke="#000000" d="M633.858,-108.1686C634.3928,-115.869 635.0286,-125.0257 635.6229,-133.5834"/>
<polygon fill="#000000" stroke="#000000" points="632.1332,-133.8533 636.3176,-143.5867 639.1163,-133.3683 632.1332,-133.8533"/>
</g>
<!-- GrassHopper -->
<g id="node16" class="node">
<title>GrassHopper</title>
<ellipse fill="#ff8c00" stroke="#000000" cx="265.5963" cy="-90" rx="57.3905" ry="18"/>
<text text-anchor="middle" x="265.5963" y="-86.3" font-family="Times,serif" font-size="14.00" fill="#000000">GrassHopper</text>
</g>
<!-- GrassHopper&#45;&gt;Insect -->
<g id="edge21" class="edge">
<title>GrassHopper&#45;&gt;Insect</title>
<path fill="none" stroke="#000000" d="M264.3346,-108.1686C263.7998,-115.869 263.164,-125.0257 262.5697,-133.5834"/>
<polygon fill="#000000" stroke="#000000" points="259.0763,-133.3683 261.875,-143.5867 266.0595,-133.8533 259.0763,-133.3683"/>
</g>
<!-- Airplane -->
<g id="node17" class="node">
<title>Airplane</title>
<ellipse fill="#ff8c00" stroke="#000000" cx="41.5963" cy="-90" rx="41.6928" ry="18"/>
<text text-anchor="middle" x="41.5963" y="-86.3" font-family="Times,serif" font-size="14.00" fill="#000000">Airplane</text>
</g>
<!-- Airplane&#45;&gt;Flyer -->
<g id="edge22" class="edge">
<title>Airplane&#45;&gt;Flyer</title>
<path fill="none" stroke="#000000" d="M63.652,-105.2693C79.3922,-116.1664 100.6852,-130.9077 117.6206,-142.6322"/>
<polygon fill="#000000" stroke="#000000" points="115.8129,-145.6376 126.0271,-148.4521 119.7974,-139.8822 115.8129,-145.6376"/>
</g>
</g>
</svg>
